<svg width="1024" height="1024" viewBox="0 0 1024 1024" fill="none" xmlns="http://www.w3.org/2000/svg">
<rect width="1024" height="1024" fill="white"/>
<rect x="24" y="348" width="256" height="650" rx="128" transform="rotate(-90 24 348)" fill="#008787"/>
<rect x="724" y="358" width="275" height="275" rx="137.5" transform="rotate(-90 724 358)" fill="#008787"/>
<rect x="999" y="677" width="256" height="650" rx="128" transform="rotate(90 999 677)" fill="#025892"/>
<rect x="299" y="667" width="275" height="275" rx="137.5" transform="rotate(90 299 667)" fill="#025892"/>
<path d="M247.159 439.545V585H223.722L155.185 485.923H153.977V585H127.628V439.545H151.207L219.673 538.693H220.952V439.545H247.159ZM322.319 587.131C311.665 587.131 302.433 584.787 294.62 580.099C286.808 575.412 280.747 568.854 276.438 560.426C272.177 551.998 270.046 542.15 270.046 530.881C270.046 519.612 272.177 509.74 276.438 501.264C280.747 492.789 286.808 486.207 294.62 481.52C302.433 476.832 311.665 474.489 322.319 474.489C332.972 474.489 342.205 476.832 350.018 481.52C357.83 486.207 363.867 492.789 368.129 501.264C372.437 509.74 374.592 519.612 374.592 530.881C374.592 542.15 372.437 551.998 368.129 560.426C363.867 568.854 357.83 575.412 350.018 580.099C342.205 584.787 332.972 587.131 322.319 587.131ZM322.461 566.534C328.237 566.534 333.067 564.948 336.95 561.776C340.832 558.556 343.72 554.247 345.614 548.849C347.556 543.452 348.526 537.438 348.526 530.81C348.526 524.134 347.556 518.097 345.614 512.699C343.72 507.254 340.832 502.921 336.95 499.702C333.067 496.482 328.237 494.872 322.461 494.872C316.542 494.872 311.618 496.482 307.688 499.702C303.806 502.921 300.894 507.254 298.952 512.699C297.058 518.097 296.112 524.134 296.112 530.81C296.112 537.438 297.058 543.452 298.952 548.849C300.894 554.247 303.806 558.556 307.688 561.776C311.618 564.948 316.542 566.534 322.461 566.534ZM450.888 475.909V495.795H388.175V475.909H450.888ZM403.658 449.773H429.368V552.188C429.368 555.644 429.889 558.295 430.93 560.142C432.019 561.941 433.44 563.172 435.192 563.835C436.944 564.498 438.885 564.83 441.016 564.83C442.625 564.83 444.093 564.711 445.419 564.474C446.792 564.238 447.834 564.025 448.544 563.835L452.876 583.935C451.503 584.408 449.538 584.929 446.982 585.497C444.472 586.065 441.394 586.397 437.749 586.491C431.309 586.681 425.509 585.71 420.348 583.58C415.187 581.402 411.091 578.04 408.061 573.494C405.078 568.949 403.61 563.267 403.658 556.449V449.773ZM472.39 585V475.909H498.1V585H472.39ZM485.316 460.426C481.244 460.426 477.74 459.077 474.805 456.378C471.869 453.632 470.401 450.341 470.401 446.506C470.401 442.623 471.869 439.332 474.805 436.634C477.74 433.887 481.244 432.514 485.316 432.514C489.435 432.514 492.939 433.887 495.827 436.634C498.763 439.332 500.231 442.623 500.231 446.506C500.231 450.341 498.763 453.632 495.827 456.378C492.939 459.077 489.435 460.426 485.316 460.426Z" fill="#008787"/>
<path d="M525.675 439.545H557.919L601.101 544.943H602.805L645.987 439.545H678.232V585H652.947V485.071H651.598L611.399 584.574H592.507L552.308 484.858H550.959V585H525.675V439.545ZM737.18 587.202C730.268 587.202 724.041 585.971 718.501 583.509C713.009 580.999 708.653 577.306 705.433 572.429C702.261 567.552 700.675 561.539 700.675 554.389C700.675 548.234 701.811 543.144 704.084 539.119C706.357 535.095 709.458 531.875 713.388 529.46C717.318 527.045 721.745 525.223 726.669 523.991C731.641 522.713 736.778 521.79 742.081 521.222C748.473 520.559 753.658 519.967 757.635 519.446C761.612 518.878 764.5 518.026 766.3 516.889C768.146 515.705 769.07 513.883 769.07 511.42V510.994C769.07 505.644 767.483 501.501 764.311 498.565C761.139 495.63 756.57 494.162 750.604 494.162C744.306 494.162 739.311 495.535 735.618 498.281C731.972 501.027 729.51 504.271 728.232 508.011L704.226 504.602C706.12 497.973 709.245 492.434 713.601 487.983C717.957 483.485 723.284 480.123 729.581 477.898C735.878 475.625 742.839 474.489 750.462 474.489C755.717 474.489 760.949 475.104 766.158 476.335C771.366 477.566 776.125 479.602 780.433 482.443C784.742 485.237 788.198 489.048 790.803 493.878C793.454 498.707 794.78 504.744 794.78 511.989V585H770.064V570.014H769.212C767.649 573.045 765.447 575.885 762.607 578.537C759.813 581.141 756.286 583.248 752.024 584.858C747.81 586.42 742.862 587.202 737.18 587.202ZM743.857 568.31C749.018 568.31 753.492 567.292 757.28 565.256C761.068 563.172 763.98 560.426 766.016 557.017C768.099 553.608 769.141 549.891 769.141 545.866V533.011C768.336 533.674 766.963 534.29 765.021 534.858C763.127 535.426 760.997 535.923 758.629 536.349C756.262 536.776 753.918 537.154 751.598 537.486C749.278 537.817 747.266 538.101 745.561 538.338C741.726 538.859 738.293 539.711 735.263 540.895C732.232 542.079 729.841 543.736 728.089 545.866C726.338 547.95 725.462 550.649 725.462 553.963C725.462 558.698 727.19 562.273 730.646 564.688C734.103 567.102 738.506 568.31 743.857 568.31ZM820.632 585V475.909H846.342V585H820.632ZM833.558 460.426C829.486 460.426 825.982 459.077 823.047 456.378C820.111 453.632 818.643 450.341 818.643 446.506C818.643 442.623 820.111 439.332 823.047 436.634C825.982 433.887 829.486 432.514 833.558 432.514C837.678 432.514 841.181 433.887 844.07 436.634C847.005 439.332 848.473 442.623 848.473 446.506C848.473 450.341 847.005 453.632 844.07 456.378C841.181 459.077 837.678 460.426 833.558 460.426ZM898.491 439.545V585H872.781V439.545H898.491Z" fill="#025892"/>
</svg>
